<svg xmlns="http://www.w3.org/2000/svg" xmlns:xlink="http://www.w3.org/1999/xlink" fill="none" stroke="none" stroke-linecap="square" stroke-miterlimit="10" version="1.1" viewBox="0.0 0.0 700.0 688.0">
    <clipPath id="p.0">
        <path d="m0 0l700.0 0l0 688.0l-700.0 0l0 -688.0z" clip-rule="nonzero"/>
    </clipPath>
    <g clip-path="url(#p.0)">
        <path fill="#000000" fill-opacity="0.0" fill-rule="evenodd" d="m0 0l700.0 0l0 688.0l-700.0 0z" class="border"/>
        <path fill="#3c78d8" fill-rule="evenodd" d="m60.818897 21.540682l133.03937 0l0 23.338583l-133.03937 0z" class="border"/>
        <path fill="#3c78d8" fill-rule="evenodd" d="m60.818897 106.43044l0 -84.88188l26.61417 0l0 84.88188z" class="border"/>
        <path fill="#f1c232" fill-rule="evenodd" d="m21.540682 262.81366l0 -179.71655l23.338583 0l0 179.71655z" class="border"/>
        <path fill="#3c78d8" fill-rule="evenodd" d="m21.540682 83.091866l65.88976 0l0 23.338577l-65.88976 0z" class="border"/>
        <path fill="#6aa84f" fill-rule="evenodd" d="m21.540682 551.6982l0 -288.8819l23.338583 0l0 288.8819z" class="border"/>
        <path fill="#a64d79" fill-rule="evenodd" d="m21.540682 670.26245l0 -126.17322l23.338583 0l0 126.17322z" class="border"/>
        <path fill="#a64d79" fill-rule="evenodd" d="m36.007874 646.9239l126.17323 0l0 23.338562l-126.17323 0z" class="border"/>
        <path fill="#f1c232" fill-rule="evenodd" d="m377.58005 21.540682l301.5748 0l0 23.338583l-301.5748 0z" class="border"/>
        <path fill="#f1c232" fill-rule="evenodd" d="m679.15485 22.167978l0 68.34646l-23.338562 0l0 -68.34646z" class="border"/>
        <path fill="#b45f06" fill-rule="evenodd" d="m679.15485 83.091866l0 94.83465l-23.338562 0l0 -94.83465z" class="border"/>
        <path fill="#f1c232" fill-rule="evenodd" d="m679.15485 167.98163l0 155.65353l-23.338562 0l0 -155.65353z" class="border"/>
        <path fill="#a64d79" fill-rule="evenodd" d="m679.15485 313.69028l0 232.94492l-23.338562 0l0 -232.94492z" class="border"/>
        <path fill="#cc0000" fill-rule="evenodd" d="m186.25722 21.540682l197.6693 0l0 23.338583l-197.6693 0z" class="border"/>
        <path fill="#dd7e6b" fill-rule="evenodd" d="m289.4147 646.9239l74.519684 0l0 23.338562l-74.519684 0z" class="border"/>
        <path fill="#999999" fill-rule="evenodd" d="m162.1811 661.93176l46.89763 0l0 8.346436l-46.89763 0z" class="border"/>
        <path fill="#999999" fill-rule="evenodd" d="m242.51706 661.93176l46.897644 0l0 8.346436l-46.897644 0z" class="border"/>
        <path fill="#999999" fill-rule="evenodd" d="m363.9344 661.93176l211.30707 0l0 8.346436l-211.30707 0z" class="border"/>
        <path fill="#999999" fill-rule="evenodd" d="m679.15485 546.6352l0 121.63776l-8.346436 0l0 -121.63776z" class="border"/>
        <path fill="#999999" fill-rule="evenodd" d="m632.24146 661.93176l46.897644 0l0 8.346436l-46.897644 0z" class="border"/>
        <path fill="#cc0000" fill-rule="evenodd" d="m204.0105 116.93438l0 -44.34645l20.283463 0l0 44.34645z"/>
        <path fill="#cc0000" fill-rule="evenodd" d="m247.68636 116.93438l0 -44.34645l20.283463 0l0 44.34645z"/>
        <path fill="#cc0000" fill-rule="evenodd" d="m291.3622 116.93438l0 -44.34645l20.283447 0l0 44.34645z"/>
        <path fill="#cc0000" fill-rule="evenodd" d="m340.20602 116.93438l0 -44.34645l20.283478 0l0 44.34645z"/>
        <path fill="#3c78d8" fill-rule="evenodd" d="m125.581345 116.93438l0 -44.34645l40.283463 0l0 44.34645z"/>
        <path fill="#f1c232" fill-rule="evenodd" d="m76.92126 152.7769l44.34646 0l0 14.393707l-44.34646 0z"/>
        <path fill="#f1c232" fill-rule="evenodd" d="m76.92126 206.98688l44.34646 0l0 14.393707l-44.34646 0z"/>
        <path fill="#f1c232" fill-rule="evenodd" d="m182.46457 144.64305l0 37.165344l-20.283463 0l0 -37.165344z"/>
        <path fill="#f1c232" fill-rule="evenodd" d="m182.46457 206.98688l0 37.16536l-20.283463 0l0 -37.16536z"/>
        <path fill="#6aa84f" fill-rule="evenodd" d="m76.92126 275.06824l85.25985 0l0 21.669281l-85.25985 0z"/>
        <path fill="#6aa84f" fill-rule="evenodd" d="m76.92126 327.65353l85.25985 0l0 21.669312l-85.25985 0z"/>
        <path fill="#6aa84f" fill-rule="evenodd" d="m70.80577 380.23883l26.614174 0l0 21.669312l-26.614174 0z"/>
        <path fill="#6aa84f" fill-rule="evenodd" d="m70.80577 431.1942l26.614174 0l0 21.669312l-26.614174 0z"/>
        <path fill="#6aa84f" fill-rule="evenodd" d="m70.80577 482.1496l26.614174 0l0 21.669312l-26.614174 0z"/>
        <path fill="#6aa84f" fill-rule="evenodd" d="m135.56693 380.23883l26.614182 0l0 21.669312l-26.614182 0z"/>
        <path fill="#6aa84f" fill-rule="evenodd" d="m135.56693 431.1942l26.614182 0l0 21.669312l-26.614182 0z"/>
        <path fill="#6aa84f" fill-rule="evenodd" d="m135.56693 482.1496l26.614182 0l0 21.669312l-26.614182 0z"/>
        <path fill="#a64d79" fill-rule="evenodd" d="m76.92126 596.3412l65.88976 0l0 21.669312l-65.88976 0z"/>
        <path fill="#6aa84f" fill-rule="evenodd" d="m70.80577 533.105l26.614174 0l0 21.669312l-26.614174 0z"/>
        <path fill="#6aa84f" fill-rule="evenodd" d="m135.56693 533.105l26.614182 0l0 21.669312l-26.614182 0z"/>
        <path fill="#f1c232" fill-rule="evenodd" d="m437.14435 116.93438l0 -44.34645l20.283478 0l0 44.34645z"/>
        <path fill="#f1c232" fill-rule="evenodd" d="m493.62204 116.93438l0 -44.34645l20.283478 0l0 44.34645z"/>
        <path fill="#b45f06" fill-rule="evenodd" d="m544.6116 72.58793l65.88977 0l0 20.283463l-65.88977 0z"/>
        <path fill="#b45f06" fill-rule="evenodd" d="m544.61285 116.93438l65.88977 0l0 20.28347l-65.88977 0z"/>
        <path fill="#b45f06" fill-rule="evenodd" d="m544.61285 161.28084l65.88977 0l0 20.283463l-65.88977 0z"/>
        <path fill="#f1c232" fill-rule="evenodd" d="m544.6107 205.6273l23.338562 0l0 20.283463l-23.338562 0z"/>
        <path fill="#f1c232" fill-rule="evenodd" d="m587.1645 205.6273l23.338623 0l0 20.283463l-23.338623 0z"/>
        <path fill="#f1c232" fill-rule="evenodd" d="m544.6094 249.97375l23.338562 0l0 20.283478l-23.338562 0z"/>
        <path fill="#f1c232" fill-rule="evenodd" d="m587.1632 249.97375l23.338562 0l0 20.283478l-23.338562 0z"/>
        <path fill="#f1c232" fill-rule="evenodd" d="m544.6094 294.32022l23.338562 0l0 20.283447l-23.338562 0z"/>
        <path fill="#f1c232" fill-rule="evenodd" d="m587.1632 294.32022l23.338562 0l0 20.283447l-23.338562 0z"/>
        <path fill="#a64d79" fill-rule="evenodd" d="m544.61285 349.32285l65.88977 0l0 20.283447l-65.88977 0z"/>
        <path fill="#a64d79" fill-rule="evenodd" d="m544.61285 397.11548l65.88977 0l0 20.283478l-65.88977 0z"/>
        <path fill="#a64d79" fill-rule="evenodd" d="m544.6102 448.6719l65.88977 0l0 20.283478l-65.88977 0z"/>
        <path fill="#a64d79" fill-rule="evenodd" d="m544.6102 500.22833l65.88977 0l0 20.283508l-65.88977 0z"/>
        <path fill="#999999" fill-rule="evenodd" d="m209.07874 315.4908l0 -170.83464l20.283463 0l0 170.83464z"/>
        <path fill="#999999" fill-rule="evenodd" d="m255.97638 315.4777l0 -170.83464l20.283478 0l0 170.83464z"/>
        <path fill="#999999" fill-rule="evenodd" d="m302.87402 315.4777l0 -170.83464l20.283447 0l0 170.83464z"/>
        <path fill="#999999" fill-rule="evenodd" d="m353.39502 315.4777l0 -170.83464l20.283447 0l0 170.83464z"/>
        <path fill="#999999" fill-rule="evenodd" d="m400.29398 315.4908l0 -170.83464l20.283447 0l0 170.83464z"/>
        <path fill="#999999" fill-rule="evenodd" d="m445.01837 315.4777l0 -170.83464l20.283478 0l0 170.83464z"/>
        <path fill="#999999" fill-rule="evenodd" d="m494.81366 315.4777l0 -170.83464l20.283447 0l0 170.83464z"/>
        <path fill="#999999" fill-rule="evenodd" d="m209.07874 527.45276l0 -170.83466l20.283463 0l0 170.83466z"/>
        <path fill="#999999" fill-rule="evenodd" d="m255.97638 527.43964l0 -170.83466l20.283478 0l0 170.83466z"/>
        <path fill="#999999" fill-rule="evenodd" d="m302.87402 527.43964l0 -170.83466l20.283447 0l0 170.83466z"/>
        <path fill="#999999" fill-rule="evenodd" d="m353.39502 527.43964l0 -170.83466l20.283447 0l0 170.83466z"/>
        <path fill="#00ffff" fill-rule="evenodd" d="m400.29398 527.45276l0 -170.83466l20.283447 0l0 170.83466z"/>
        <path fill="#00ffff" fill-rule="evenodd" d="m445.01837 527.43964l0 -170.83466l20.283478 0l0 170.83466z"/>
        <path fill="#00ffff" fill-rule="evenodd" d="m494.81366 527.43964l0 -170.83466l20.283447 0l0 170.83466z"/>
        <path fill="#000000" fill-opacity="0.0" fill-rule="evenodd" d="m87.43044 37.06824l116.56693 0l0 23.338585l-116.56693 0z"/>
        <path fill="#efefef" fill-rule="nonzero" d="m97.10232 59.64449l2.625 -0.25q0.234375 1.3125 0.953125 1.9375q0.734375 0.609375 1.96875 0.609375q1.296875 0 1.953125 -0.546875q0.671875 -0.546875 0.671875 -1.28125q0 -0.484375 -0.28125 -0.8125q-0.28125 -0.328125 -0.96875 -0.578125q-0.484375 -0.15625 -2.171875 -0.578125q-2.15625 -0.546875 -3.03125 -1.328125q-1.234375 -1.09375 -1.234375 -2.6875q0 -1.015625 0.578125 -1.90625q0.578125 -0.890625 1.65625 -1.34375q1.09375 -0.46875 2.640625 -0.46875q2.515625 0 3.78125 1.109375q1.28125 1.09375 1.34375 2.9375l-2.703125 0.109375q-0.171875 -1.03125 -0.75 -1.46875q-0.5625 -0.453125 -1.703125 -0.453125q-1.171875 0 -1.84375 0.46875q-0.421875 0.3125 -0.421875 0.84375q0 0.46875 0.40625 0.796875q0.5 0.4375 2.46875 0.90625q1.96875 0.453125 2.90625 0.953125q0.953125 0.5 1.484375 1.359375q0.53125 0.859375 0.53125 2.125q0 1.15625 -0.640625 2.15625q-0.640625 1.0 -1.8125 1.484375q-1.15625 0.4843788 -2.890625 0.4843788q-2.53125 0 -3.890625 -1.1718788q-1.359375 -1.171875 -1.625 -3.40625zm13.131073 4.34375l0 -13.359375l9.90625 0l0 2.265625l-7.21875 0l0 2.953125l6.71875 0l0 2.25l-6.71875 0l0 3.640625l7.46875 0l0 2.25l-10.15625 0zm24.490456 0l-2.9375 0l-1.171875 -3.03125l-5.3281326 0l-1.109375 3.03125l-2.859375 0l5.203125 -13.359375l2.8437576 0l5.359375 13.359375zm-4.96875 -5.28125l-1.8437576 -4.953125l-1.796875 4.953125l3.6406326 0zm6.410446 5.28125l0 -13.359375l9.15625 0l0 2.265625l-6.453125 0l0 3.15625l5.5625 0l0 2.265625l-5.5625 0l0 5.671875l-2.703125 0zm10.833481 -6.59375q0 -2.046875 0.609375 -3.421875q0.453125 -1.03125 1.234375 -1.828125q0.796875 -0.8125 1.734375 -1.203125q1.25 -0.53125 2.875 -0.53125q2.953125 0 4.71875 1.828125q1.78125 1.828125 1.78125 5.09375q0 3.234375 -1.765625 5.0625q-1.75 1.8281288 -4.6875 1.8281288q-2.984375 0 -4.75 -1.8125038q-1.75 -1.828125 -1.75 -5.015625zm2.78125 -0.09375q0 2.265625 1.046875 3.4375q1.046875 1.171875 2.65625 1.171875q1.609375 0 2.640625 -1.15625q1.046875 -1.171875 1.046875 -3.484375q0 -2.296875 -1.015625 -3.421875q-1.0 -1.140625 -2.671875 -1.140625q-1.671875 0 -2.6875 1.15625q-1.015625 1.140625 -1.015625 3.4375zm11.730179 0.09375q0 -2.046875 0.609375 -3.421875q0.453125 -1.03125 1.234375 -1.828125q0.796875 -0.8125 1.734375 -1.203125q1.25 -0.53125 2.875 -0.53125q2.953125 0 4.71875 1.828125q1.78125 1.828125 1.78125 5.09375q0 3.234375 -1.765625 5.0625q-1.75 1.8281288 -4.6875 1.8281288q-2.984375 0 -4.75 -1.8125038q-1.75 -1.828125 -1.75 -5.015625zm2.78125 -0.09375q0 2.265625 1.046875 3.4375q1.046875 1.171875 2.65625 1.171875q1.609375 0 2.640625 -1.15625q1.046875 -1.171875 1.046875 -3.484375q0 -2.296875 -1.015625 -3.421875q-1.0 -1.140625 -2.671875 -1.140625q-1.671875 0 -2.6875 1.15625q-1.015625 1.140625 -1.015625 3.4375zm12.261429 -6.671875l4.9375 0q1.65625 0 2.53125 0.265625q1.1875 0.34375 2.015625 1.234375q0.84375 0.875 1.28125 2.15625q0.4375 1.28125 0.4375 3.15625q0 1.640625 -0.40625 2.84375q-0.5 1.453125 -1.4375 2.359375q-0.703125 0.671875 -1.890625 1.0625q-0.890625 0.28125 -2.390625 0.28125l-5.078125 0l0 -13.359375zm2.703125 2.265625l0 8.84375l2.015625 0q1.125 0 1.625 -0.125q0.65625 -0.171875 1.078125 -0.5625q0.4375 -0.390625 0.703125 -1.28125q0.28125 -0.90625 0.28125 -2.453125q0 -1.546875 -0.28125 -2.375q-0.265625 -0.828125 -0.765625 -1.28125q-0.484375 -0.46875 -1.234375 -0.640625q-0.5625 -0.125 -2.21875 -0.125l-1.203125 0z"/>
        <path fill="#000000" fill-opacity="0.0" fill-rule="evenodd" d="m254.73097 37.06693l116.56694 0l0 23.338581l-116.56694 0z"/>
        <path fill="#efefef" fill-rule="nonzero" d="m265.05908 63.986927l0 -13.359375l4.03125 0l2.421875 9.109375l2.390625 -9.109375l4.046875 0l0 13.359375l-2.5 0l0 -10.515625l-2.65625 10.515625l-2.59375 0l-2.640625 -10.515625l0 10.515625l-2.5 0zm15.572052 0l0 -13.359375l9.90625 0l0 2.265625l-7.21875 0l0 2.953125l6.71875 0l0 2.25l-6.71875 0l0 3.640625l7.46875 0l0 2.25l-10.15625 0zm24.490448 0l-2.9375 0l-1.171875 -3.03125l-5.328125 0l-1.109375 3.03125l-2.859375 0l5.203125 -13.359375l2.84375 0l5.359375 13.359375zm-4.96875 -5.28125l-1.84375 -4.953125l-1.796875 4.953125l3.640625 0zm8.009399 5.28125l0 -11.09375l-3.953125 0l0 -2.265625l10.609375 0l0 2.265625l-3.953125 0l0 11.09375l-2.703125 0z"/>
        <path fill="#000000" fill-opacity="0.0" fill-rule="evenodd" d="m400.29398 37.06824l243.18112 0l0 23.338585l-243.18112 0z"/>
        <path fill="#efefef" fill-rule="nonzero" d="m410.63773 50.628864l4.9375 0q1.65625 0 2.53125 0.265625q1.1875 0.34375 2.015625 1.234375q0.84375 0.875 1.28125 2.15625q0.4375 1.28125 0.4375 3.15625q0 1.640625 -0.40625 2.84375q-0.5 1.453125 -1.4375 2.359375q-0.703125 0.671875 -1.890625 1.0625q-0.890625 0.28125 -2.390625 0.28125l-5.078125 0l0 -13.359375zm2.703125 2.265625l0 8.84375l2.015625 0q1.125 0 1.625 -0.125q0.65625 -0.171875 1.078125 -0.5625q0.4375 -0.390625 0.703125 -1.28125q0.28125 -0.90625 0.28125 -2.453125q0 -1.546875 -0.28125 -2.375q-0.265625 -0.828125 -0.765625 -1.28125q-0.484375 -0.46875 -1.234375 -0.640625q-0.5625 -0.125 -2.21875 -0.125l-1.203125 0zm22.832306 11.09375l-2.9375 0l-1.171875 -3.03125l-5.328125 0l-1.109375 3.03125l-2.859375 0l5.203125 -13.359375l2.84375 0l5.359375 13.359375zm-4.96875 -5.28125l-1.84375 -4.953125l-1.796875 4.953125l3.640625 0zm6.3167114 5.28125l0 -13.359375l2.6875 0l0 13.359375l-2.6875 0zm5.2614136 0l0 -13.359375l5.6875 0q2.140625 0 3.109375 0.359375q0.96875 0.359375 1.546875 1.28125q0.578125 0.921875 0.578125 2.109375q0 1.5 -0.890625 2.484375q-0.875 0.96875 -2.625 1.234375q0.875 0.5 1.4375 1.125q0.578125 0.609375 1.53125 2.15625l1.640625 2.609375l-3.234375 0l-1.9375 -2.90625q-1.046875 -1.5625 -1.4375 -1.96875q-0.375 -0.40625 -0.8125 -0.546875q-0.421875 -0.15625 -1.34375 -0.15625l-0.546875 0l0 5.578125l-2.703125 0zm2.703125 -7.703125l2.0 0q1.9375 0 2.421875 -0.15625q0.484375 -0.171875 0.75 -0.578125q0.28125 -0.40625 0.28125 -1.0q0 -0.671875 -0.359375 -1.078125q-0.359375 -0.421875 -1.015625 -0.53125q-0.328125 -0.046875 -1.96875 -0.046875l-2.109375 0l0 3.390625zm13.577118 7.703125l0 -5.625l-4.890625 -7.734375l3.171875 0l3.140625 5.28125l3.078125 -5.28125l3.109375 0l-4.921875 7.75l0 5.609375l-2.6875 0zm6.7964478 -2.5625l2.546875 0l0 1.828125q0 1.1093788 -0.1875 1.7500038q-0.1875 0.65625 -0.71875 1.15625q-0.53125 0.515625 -1.359375 0.8125l-0.5 -1.0625q0.78125 -0.25 1.109375 -0.703125q0.328125 -0.4375 0.34375 -1.2187538l-1.234375 0l0 -2.5625zm10.444733 2.5625l0 -13.359375l9.90625 0l0 2.265625l-7.21875 0l0 2.953125l6.71875 0l0 2.25l-6.71875 0l0 3.640625l7.46875 0l0 2.25l-10.15625 0zm18.646698 -4.90625l0 -2.25l5.8125 0l0 5.3125q-0.84375 0.828125 -2.453125 1.453125q-1.609375 0.6250038 -3.25 0.6250038q-2.09375 0 -3.65625 -0.8750038q-1.5625 -0.890625 -2.34375 -2.515625q-0.78125 -1.640625 -0.78125 -3.5625q0 -2.09375 0.875 -3.703125q0.875 -1.625 2.5625 -2.5q1.28125 -0.65625 3.203125 -0.65625q2.484375 0 3.875 1.046875q1.40625 1.03125 1.796875 2.875l-2.671875 0.5q-0.28125 -0.984375 -1.0625 -1.546875q-0.78125 -0.578125 -1.9375 -0.578125q-1.78125 0 -2.828125 1.125q-1.03125 1.125 -1.03125 3.328125q0 2.375 1.046875 3.5625q1.0625 1.1875 2.78125 1.1875q0.84375 0 1.6875 -0.328125q0.859375 -0.328125 1.46875 -0.8125l0 -1.6875l-3.09375 0zm14.511414 0l0 -2.25l5.8125305 0l0 5.3125q-0.84375 0.828125 -2.453125 1.453125q-1.6094055 0.6250038 -3.2500305 0.6250038q-2.09375 0 -3.65625 -0.8750038q-1.5625 -0.890625 -2.34375 -2.515625q-0.78125 -1.640625 -0.78125 -3.5625q0 -2.09375 0.875 -3.703125q0.875 -1.625 2.5625 -2.5q1.28125 -0.65625 3.203125 -0.65625q2.484375 0 3.8750305 1.046875q1.40625 1.03125 1.796875 2.875l-2.671875 0.5q-0.28125 -0.984375 -1.0625305 -1.546875q-0.78125 -0.578125 -1.9375 -0.578125q-1.78125 0 -2.828125 1.125q-1.03125 1.125 -1.03125 3.328125q0 2.375 1.046875 3.5625q1.0625 1.1875 2.78125 1.1875q0.84375 0 1.6875 -0.328125q0.859375 -0.328125 1.4687805 -0.8125l0 -1.6875l-3.0937805 0zm7.620819 0.5625l2.625 -0.25q0.234375 1.3125 0.953125 1.9375q0.734375 0.609375 1.96875 0.609375q1.296875 0 1.953125 -0.546875q0.671875 -0.546875 0.671875 -1.28125q0 -0.484375 -0.28125 -0.8125q-0.28125 -0.328125 -0.96875 -0.578125q-0.484375 -0.15625 -2.171875 -0.578125q-2.15625 -0.546875 -3.03125 -1.328125q-1.234375 -1.09375 -1.234375 -2.6875q0 -1.015625 0.578125 -1.90625q0.578125 -0.890625 1.65625 -1.34375q1.09375 -0.46875 2.640625 -0.46875q2.515625 0 3.78125 1.109375q1.28125 1.09375 1.34375 2.9375l-2.703125 0.109375q-0.171875 -1.03125 -0.75 -1.46875q-0.5625 -0.453125 -1.703125 -0.453125q-1.171875 0 -1.84375 0.46875q-0.421875 0.3125 -0.421875 0.84375q0 0.46875 0.40625 0.796875q0.5 0.4375 2.46875 0.90625q1.96875 0.453125 2.90625 0.953125q0.953125 0.5 1.484375 1.359375q0.53125 0.859375 0.53125 2.125q0 1.15625 -0.640625 2.15625q-0.640625 1.0 -1.8125 1.484375q-1.15625 0.4843788 -2.890625 0.4843788q-2.53125 0 -3.890625 -1.1718788q-1.359375 -1.171875 -1.625 -3.40625zm30.126892 2.71875l-1.546875 1.9687538q-1.140625 -0.5468788 -2.1875 -1.5312538q-0.8125 0.734375 -1.71875 1.078125q-0.90625 0.3437538 -2.171875 0.3437538q-2.5 0 -3.75 -1.4062538q-0.984375 -1.078125 -0.984375 -2.484375q0 -1.296875 0.765625 -2.3125q0.765625 -1.03125 2.296875 -1.78125q-0.6875 -0.8125 -1.03125 -1.546875q-0.34375 -0.734375 -0.34375 -1.390625q0 -1.203125 0.96875 -2.046875q0.96875 -0.84375 2.765625 -0.84375q1.734375 0 2.703125 0.890625q0.96875 0.875 0.96875 2.140625q0 0.8125 -0.484375 1.546875q-0.46875 0.734375 -1.9375 1.65625l1.859375 2.4375q0.328125 -0.578125 0.5625 -1.515625l2.3125 0.53125q-0.34375 1.21875 -0.609375 1.796875q-0.25 0.5625 -0.546875 0.953125q0.4375 0.40625 1.109375 0.890625q0.6875 0.46875 1.0 0.625zm-6.96875 -7.265625l0.6875 -0.53125q0.765625 -0.59375 0.765625 -1.171875q0 -0.5 -0.375 -0.84375q-0.359375 -0.34375 -0.984375 -0.34375q-0.609375 0 -0.96875 0.3125q-0.34375 0.296875 -0.34375 0.703125q0 0.46875 0.59375 1.140625l0.625 0.734375zm-1.0 2.78125q-0.890625 0.4375 -1.328125 1.078125q-0.4375 0.625 -0.4375 1.28125q0 0.828125 0.546875 1.359375q0.546875 0.515625 1.453125 0.515625q0.609375 0 1.15625 -0.234375q0.5625 -0.234375 1.21875 -0.78125l-2.609375 -3.21875zm23.359375 1.203125l2.609375 0.828125q-0.59375 2.1875 -2.0 3.25q-1.390625 1.0625038 -3.546875 1.0625038q-2.65625 0 -4.375 -1.8125038q-1.703125 -1.828125 -1.703125 -4.984375q0 -3.328125 1.71875 -5.171875q1.71875 -1.84375 4.515625 -1.84375q2.453125 0 3.984375 1.4375q0.921875 0.859375 1.375 2.46875l-2.671875 0.640625q-0.234375 -1.046875 -0.984375 -1.640625q-0.75 -0.609375 -1.828125 -0.609375q-1.484375 0 -2.421875 1.078125q-0.921875 1.0625 -0.921875 3.4375q0 2.53125 0.90625 3.609375q0.921875 1.078125 2.375 1.078125q1.078125 0 1.84375 -0.671875q0.78125 -0.6875 1.125 -2.15625zm4.9260254 4.90625l0 -13.359375l2.703125 0l0 5.265625l5.28125 0l0 -5.265625l2.703125 0l0 13.359375l-2.703125 0l0 -5.84375l-5.28125 0l0 5.84375l-2.703125 0zm13.472961 0l0 -13.359375l9.90625 0l0 2.265625l-7.21875 0l0 2.953125l6.71875 0l0 2.25l-6.71875 0l0 3.640625l7.46875 0l0 2.25l-10.15625 0zm12.4436035 0l0 -13.359375l9.90625 0l0 2.265625l-7.21875 0l0 2.953125l6.71875 0l0 2.25l-6.71875 0l0 3.640625l7.46875 0l0 2.25l-10.15625 0zm11.7560425 -4.34375l2.625 -0.25q0.234375 1.3125 0.953125 1.9375q0.734375 0.609375 1.96875 0.609375q1.296875 0 1.953125 -0.546875q0.671875 -0.546875 0.671875 -1.28125q0 -0.484375 -0.28125 -0.8125q-0.28125 -0.328125 -0.96875 -0.578125q-0.484375 -0.15625 -2.171875 -0.578125q-2.15625 -0.546875 -3.03125 -1.328125q-1.234375 -1.09375 -1.234375 -2.6875q0 -1.015625 0.578125 -1.90625q0.578125 -0.890625 1.65625 -1.34375q1.09375 -0.46875 2.640625 -0.46875q2.515625 0 3.78125 1.109375q1.28125 1.09375 1.34375 2.9375l-2.703125 0.109375q-0.171875 -1.03125 -0.75 -1.46875q-0.5625 -0.453125 -1.703125 -0.453125q-1.171875 0 -1.84375 0.46875q-0.421875 0.3125 -0.421875 0.84375q0 0.46875 0.40625 0.796875q0.5 0.4375 2.46875 0.90625q1.96875 0.453125 2.90625 0.953125q0.953125 0.5 1.484375 1.359375q0.53125 0.859375 0.53125 2.125q0 1.15625 -0.640625 2.15625q-0.640625 1.0 -1.8125 1.484375q-1.15625 0.4843788 -2.890625 0.4843788q-2.53125 0 -3.890625 -1.1718788q-1.359375 -1.171875 -1.625 -3.40625zm13.1311035 4.34375l0 -13.359375l9.90625 0l0 2.265625l-7.21875 0l0 2.953125l6.71875 0l0 2.25l-6.71875 0l0 3.640625l7.46875 0l0 2.25l-10.15625 0z"/>
        <path fill="#000000" fill-opacity="0.0" fill-rule="evenodd" d="m35.05512 221.50787l0 -116.566925l23.338581 0l0 116.566925z"/>
        <path fill="#efefef" fill-rule="nonzero" d="m48.61574 211.1485l0 -5.34375q0 -1.59375 0.140625 -2.359375q0.125 -0.78125 0.546875 -1.390625q0.421875 -0.625 1.125 -1.03125q0.6875 -0.40625 1.546875 -0.40625q0.9375 0 1.734375 0.5q0.78125 0.5 1.171875 1.375q0.359375 -1.21875 1.21875 -1.875q0.84375 -0.65625 2.0 -0.65625q0.921875 0 1.78125 0.421875q0.859375 0.421875 1.375 1.15625q0.515625 0.734375 0.625 1.796875q0.078125 0.6875 0.09375 3.265625l0 4.546875l-13.359375 0zm2.234375 -2.703125l3.078125 0l0 -1.765625q0 -1.578125 -0.046875 -1.953125q-0.078125 -0.703125 -0.46875 -1.09375q-0.40625 -0.40625 -1.046875 -0.40625q-0.625 0 -1.0 0.34375q-0.390625 0.34375 -0.484375 1.015625q-0.03125 0.40625 -0.03125 2.3125l0 1.546875zm5.296875 0l3.578125 0l0 -2.5q0 -1.453125 -0.078125 -1.84375q-0.109375 -0.609375 -0.53125 -0.984375q-0.421875 -0.375 -1.140625 -0.375q-0.59375 0 -1.015625 0.296875q-0.421875 0.28125 -0.609375 0.84375q-0.203125 0.546875 -0.203125 2.390625l0 2.171875zm-7.53125 -10.754196l0 -2.6875l7.234375 0q1.71875 0 2.234375 -0.109375q0.828125 -0.171875 1.328125 -0.8125q0.484375 -0.65625 0.484375 -1.78125q0 -1.15625 -0.46875 -1.734375q-0.46875 -0.59375 -1.140625 -0.703125q-0.6875 -0.125 -2.28125 -0.125l-7.390625 0l0 -2.6875l7.015625 0q2.40625 0 3.40625 0.21875q0.984375 0.21875 1.671875 0.8125q0.6875 0.578125 1.09375 1.5625q0.40625 0.984375 0.40625 2.5625q0 1.921875 -0.4375 2.90625q-0.453125 0.984375 -1.15625 1.5625q-0.703125 0.578125 -1.484375 0.75q-1.140625 0.265625 -3.390625 0.265625l-7.125 0zm13.359375 -13.566696l-13.25 0l0 -2.6875l11.0 0l0 -6.703125l2.25 0l0 9.390625zm0 -11.349106l-13.359375 0l0 -2.703125l5.9375 0l-5.9375 -5.4375l0 -3.625l5.203125 5.015625l8.15625 -5.296875l0 3.484375l-6.265625 3.671875l2.234375 2.1875l4.03125 0l0 2.703125z"/>
        <path fill="#000000" fill-opacity="0.0" fill-rule="evenodd" d="m35.05512 441.08136l0 -116.566925l23.338581 0l0 116.566925z"/>
        <path fill="#efefef" fill-rule="nonzero" d="m61.975117 430.722l-13.359375 0l0 -4.328125q0 -2.453125 0.203125 -3.203125q0.296875 -1.140625 1.3125 -1.921875q1.0 -0.78125 2.59375 -0.78125q1.234375 0 2.078125 0.453125q0.828125 0.453125 1.3125 1.140625q0.46875 0.6875 0.625 1.390625q0.203125 0.96875 0.203125 2.796875l0 1.765625l5.03125 0l0 2.6875zm-11.09375 -2.6875l3.78125 0l0 -1.484375q0 -1.59375 -0.203125 -2.125q-0.203125 -0.546875 -0.65625 -0.84375q-0.453125 -0.3125 -1.03125 -0.3125q-0.734375 0 -1.203125 0.4375q-0.484375 0.421875 -0.59375 1.078125q-0.09375 0.484375 -0.09375 1.9375l0 1.3125zm11.09375 -9.756073l-13.359375 0l0 -5.6875q0 -2.140625 0.359375 -3.109375q0.359375 -0.96875 1.28125 -1.546875q0.921875 -0.578125 2.109375 -0.578125q1.5 0 2.484375 0.890625q0.96875 0.875 1.234375 2.625q0.5 -0.875 1.125 -1.4375q0.609375 -0.578125 2.15625 -1.53125l2.609375 -1.640625l0 3.234375l-2.90625 1.9375q-1.5625 1.046875 -1.96875 1.4375q-0.40625 0.375 -0.546875 0.8125q-0.15625 0.421875 -0.15625 1.34375l0 0.546875l5.578125 0l0 2.703125zm-7.703125 -2.703125l0 -2.0q0 -1.9375 -0.15625 -2.421875q-0.171875 -0.484375 -0.578125 -0.75q-0.40625 -0.28125 -1.0 -0.28125q-0.671875 0 -1.078125 0.359375q-0.421875 0.359375 -0.53125 1.015625q-0.046875 0.328125 -0.046875 1.96875l0 2.109375l3.390625 0zm1.109375 -10.222931q-2.046875 0 -3.421875 -0.609375q-1.03125 -0.453125 -1.828125 -1.234375q-0.8125 -0.796875 -1.203125 -1.734375q-0.53125 -1.25 -0.53125 -2.875q0 -2.953125 1.828125 -4.71875q1.828125 -1.78125 5.09375 -1.78125q3.234375 0 5.0625 1.765625q1.828125 1.75 1.828125 4.6875q0 2.984375 -1.8125 4.75q-1.828125 1.75 -5.015625 1.75zm-0.09375 -2.78125q2.265625 0 3.4375 -1.046875q1.171875 -1.046875 1.171875 -2.65625q0 -1.609375 -1.15625 -2.640625q-1.171875 -1.046875 -3.484375 -1.046875q-2.296875 0 -3.421875 1.015625q-1.140625 1.0 -1.140625 2.671875q0 1.671875 1.15625 2.6875q1.140625 1.015625 3.4375 1.015625zm-6.671875 -12.261444l0 -4.9375q0 -1.65625 0.265625 -2.53125q0.34375 -1.1875 1.234375 -2.015625q0.875 -0.84375 2.15625 -1.28125q1.28125 -0.4375 3.15625 -0.4375q1.640625 0 2.84375 0.40625q1.453125 0.5 2.359375 1.4375q0.671875 0.703125 1.0625 1.890625q0.28125 0.890625 0.28125 2.390625l0 5.078125l-13.359375 0zm2.265625 -2.703125l8.84375 0l0 -2.015625q0 -1.125 -0.125 -1.625q-0.171875 -0.65625 -0.5625 -1.078125q-0.390625 -0.4375 -1.28125 -0.703125q-0.90625 -0.28125 -2.453125 -0.28125q-1.546875 0 -2.375 0.28125q-0.828125 0.265625 -1.28125 0.765625q-0.46875 0.484375 -0.640625 1.234375q-0.125 0.5625 -0.125 2.21875l0 1.203125zm-2.265625 -10.769806l0 -2.6875l7.234375 0q1.71875 0 2.234375 -0.109375q0.828125 -0.171875 1.328125 -0.8125q0.484375 -0.65625 0.484375 -1.78125q0 -1.15625 -0.46875 -1.734375q-0.46875 -0.59375 -1.140625 -0.703125q-0.6875 -0.125 -2.28125 -0.125l-7.390625 0l0 -2.6875l7.015625 0q2.40625 0 3.40625 0.21875q0.984375 0.21875 1.671875 0.8125q0.6875 0.578125 1.09375 1.5625q0.40625 0.984375 0.40625 2.5625q0 1.921875 -0.4375 2.90625q-0.453125 0.984375 -1.15625 1.5625q-0.703125 0.578125 -1.484375 0.75q-1.140625 0.265625 -3.390625 0.265625l-7.125 0zm8.453125 -22.035461l0.828125 -2.609375q2.1875 0.59375 3.25 2.0q1.0625 1.390625 1.0625 3.546875q0 2.65625 -1.8125 4.375q-1.828125 1.703125 -4.984375 1.703125q-3.328125 0 -5.171875 -1.71875q-1.84375 -1.71875 -1.84375 -4.515625q0 -2.453125 1.4375 -3.984375q0.859375 -0.921875 2.46875 -1.375l0.640625 2.671875q-1.046875 0.234375 -1.640625 0.984375q-0.609375 0.75 -0.609375 1.828125q0 1.484375 1.078125 2.421875q1.0625 0.921875 3.4375 0.921875q2.53125 0 3.609375 -0.90625q1.078125 -0.921875 1.078125 -2.375q0 -1.078125 -0.671875 -1.84375q-0.6875 -0.78125 -2.15625 -1.125zm4.90625 -4.926056l-13.359375 0l0 -9.90625l2.265625 0l0 7.21875l2.953125 0l0 -6.71875l2.25 0l0 6.71875l3.640625 0l0 -7.46875l2.25 0l0 10.15625z"/>
        <path fill="#000000" fill-opacity="0.0" fill-rule="evenodd" d="m40.811024 608.64307l116.56694 0l0 23.338562l-116.56694 0z"/>
        <path fill="#efefef" fill-rule="nonzero" d="m51.186024 635.56305l0 -13.359375l9.15625 0l0 2.265625l-6.453125 0l0 3.15625l5.5625 0l0 2.265625l-5.5625 0l0 5.671875l-2.703125 0zm11.458481 0l0 -13.25l2.6874962 0l0 11.0l6.703125 0l0 2.25l-9.390621 0zm10.770977 -6.59375q0 -2.046875 0.609375 -3.421875q0.453125 -1.03125 1.234375 -1.828125q0.796875 -0.8125 1.734375 -1.203125q1.25 -0.53125 2.875 -0.53125q2.953125 0 4.71875 1.828125q1.78125 1.828125 1.78125 5.09375q0 3.234375 -1.765625 5.0625q-1.75 1.828125 -4.6875 1.828125q-2.984375 0 -4.75 -1.8125q-1.75 -1.828125 -1.75 -5.015625zm2.78125 -0.09375q0 2.265625 1.046875 3.4375q1.046875 1.171875 2.65625 1.171875q1.609375 0 2.640625 -1.15625q1.046875 -1.171875 1.046875 -3.484375q0 -2.296875 -1.015625 -3.421875q-1.0 -1.140625 -2.671875 -1.140625q-1.671875 0 -2.6875 1.15625q-1.015625 1.140625 -1.015625 3.4375zm12.277054 6.6875l0 -13.359375l5.6875 0q2.140625 0 3.109375 0.359375q0.96875 0.359375 1.546875 1.28125q0.578125 0.921875 0.578125 2.109375q0 1.5 -0.890625 2.484375q-0.875 0.96875 -2.625 1.234375q0.875 0.5 1.4375 1.125q0.578125 0.609375 1.53125 2.15625l1.640625 2.609375l-3.234375 0l-1.9375 -2.90625q-1.046875 -1.5625 -1.4375 -1.96875q-0.375 -0.40625 -0.8125 -0.546875q-0.421875 -0.15625 -1.34375 -0.15625l-0.546875 0l0 5.578125l-2.703125 0zm2.703125 -7.703125l2.0 0q1.9375 0 2.421875 -0.15625q0.484375 -0.171875 0.75 -0.578125q0.28125 -0.40625 0.28125 -1.0q0 -0.671875 -0.359375 -1.078125q-0.359375 -0.421875 -1.015625 -0.53125q-0.328125 -0.046875 -1.96875 -0.046875l-2.109375 0l0 3.390625zm10.691696 7.703125l0 -13.359375l2.6875 0l0 13.359375l-2.6875 0zm4.573929 -4.34375l2.625 -0.25q0.234375 1.3125 0.953125 1.9375q0.734375 0.609375 1.96875 0.609375q1.296875 0 1.953125 -0.546875q0.671875 -0.546875 0.671875 -1.28125q0 -0.484375 -0.28125 -0.8125q-0.28125 -0.328125 -0.96875 -0.578125q-0.484375 -0.15625 -2.171875 -0.578125q-2.15625 -0.546875 -3.03125 -1.328125q-1.234375 -1.09375 -1.234375 -2.6875q0 -1.015625 0.578125 -1.90625q0.578125 -0.890625 1.65625 -1.34375q1.09375 -0.46875 2.640625 -0.46875q2.515625 0 3.78125 1.109375q1.28125 1.09375 1.34375 2.9375l-2.703125 0.109375q-0.171875 -1.03125 -0.75 -1.46875q-0.5625 -0.453125 -1.703125 -0.453125q-1.171875 0 -1.84375 0.46875q-0.421875 0.3125 -0.421875 0.84375q0 0.46875 0.40625 0.796875q0.5 0.4375 2.46875 0.90625q1.96875 0.453125 2.90625 0.953125q0.953125 0.5 1.484375 1.359375q0.53125 0.859375 0.53125 2.125q0 1.15625 -0.640625 2.15625q-0.640625 1.0 -1.8125 1.484375q-1.15625 0.484375 -2.890625 0.484375q-2.53125 0 -3.890625 -1.171875q-1.359375 -1.171875 -1.625 -3.40625zm16.131073 4.34375l0 -11.09375l-3.953125 0l0 -2.265625l10.609375 0l0 2.265625l-3.953125 0l0 11.09375l-2.703125 0z"/>
        <path fill="#000000" fill-opacity="0.0" fill-rule="evenodd" d="m411.70865 488.4462l0 -116.566925l15.212616 0l0 116.566925z"/>
        <path fill="#efefef" fill-rule="nonzero" d="m435.84125 478.0712l-13.359375 0l0 -9.15625l2.265625 0l0 6.453125l3.15625 0l0 -5.5625l2.265625 0l0 5.5625l5.671875 0l0 2.703125zm0 -11.380371l-13.359375 0l0 -5.6875q0 -2.140625 0.359375 -3.109375q0.359375 -0.96875 1.28125 -1.546875q0.921875 -0.578125 2.109375 -0.578125q1.5 0 2.484375 0.890625q0.96875 0.875 1.234375 2.625q0.5 -0.875 1.125 -1.4375q0.609375 -0.578125 2.15625 -1.53125l2.609375 -1.640625l0 3.234375l-2.90625 1.9375q-1.5625 1.046875 -1.96875 1.4375q-0.40625 0.375 -0.546875 0.8125q-0.15625 0.421875 -0.15625 1.34375l0 0.546875l5.578125 0l0 2.703125zm-7.703125 -2.703125l0 -2.0q0 -1.9375 -0.15625 -2.421875q-0.171875 -0.484375 -0.578125 -0.75q-0.40625 -0.28125 -1.0 -0.28125q-0.671875 0 -1.078125 0.359375q-0.421875 0.359375 -0.53125 1.015625q-0.046875 0.328125 -0.046875 1.96875l0 2.109375l3.390625 0zm1.109375 -10.222931q-2.046875 0 -3.421875 -0.609375q-1.03125 -0.453125 -1.828125 -1.234375q-0.8125 -0.796875 -1.203125 -1.734375q-0.53125 -1.25 -0.53125 -2.875q0 -2.953125 1.828125 -4.71875q1.828125 -1.78125 5.09375 -1.78125q3.234375 0 5.0625 1.765625q1.828125 1.75 1.828125 4.6875q0 2.984375 -1.8125 4.75q-1.828125 1.75 -5.015625 1.75zm-0.09375 -2.78125q2.265625 0 3.4375 -1.046875q1.171875 -1.046875 1.171875 -2.65625q0 -1.609375 -1.15625 -2.640625q-1.171875 -1.046875 -3.484375 -1.046875q-2.296875 0 -3.421875 1.015625q-1.140625 1.0 -1.140625 2.671875q0 1.671875 1.15625 2.6875q1.140625 1.015625 3.4375 1.015625zm6.6875 -11.120819l-2.4375 0l-8.65625 -7.015625l0 6.21875l-2.265625 0l0 -9.765625l2.09375 0l9.015625 7.3125l0 -7.59375l2.25 0l0 10.84375zm0 -12.552216l-13.359375 0l0 -9.90625l2.265625 0l0 7.21875l2.953125 0l0 -6.71875l2.25 0l0 6.71875l3.640625 0l0 -7.46875l2.25 0l0 10.15625zm0 -12.474823l-13.359375 0l0 -2.625l8.921875 -5.453125l-8.921875 0l0 -2.515625l13.359375 0l0 2.703125l-8.703125 5.390625l8.703125 0l0 2.5z"/>
        <path fill="#000000" fill-opacity="0.0" fill-rule="evenodd" d="m315.30148 288.34384l0 -116.56694l26.393707 0l0 116.56694z"/>
        <path fill="#efefef" fill-rule="nonzero" d="m337.31525 271.78134l-2.25 0l0 -5.8125l5.3125 0q0.828125 0.84375 1.453125 2.453125q0.625 1.609375 0.625 3.25q0 2.09375 -0.875 3.65625q-0.890625 1.5625 -2.515625 2.34375q-1.640625 0.78125 -3.5625 0.78125q-2.09375 0 -3.703125 -0.875q-1.625 -0.875 -2.5 -2.5625q-0.65625 -1.28125 -0.65625 -3.203125q0 -2.484375 1.046875 -3.875q1.03125 -1.40625 2.875 -1.796875l0.5 2.671875q-0.984375 0.28125 -1.546875 1.0625q-0.578125 0.78125 -0.578125 1.9375q0 1.78125 1.125 2.828125q1.125 1.03125 3.328125 1.03125q2.375 0 3.5625 -1.046875q1.1875 -1.0625 1.1875 -2.78125q0 -0.84375 -0.328125 -1.6875q-0.328125 -0.859375 -0.8125 -1.46875l-1.6875 0l0 3.09375zm4.90625 -8.308319l-13.359375 0l0 -5.6875q0 -2.140625 0.359375 -3.109375q0.359375 -0.96875 1.28125 -1.546875q0.921875 -0.578125 2.109375 -0.578125q1.5 0 2.484375 0.890625q0.96875 0.875 1.234375 2.625q0.5 -0.875 1.125 -1.4375q0.609375 -0.578125 2.15625 -1.53125l2.609375 -1.640625l0 3.234375l-2.90625 1.9375q-1.5625 1.046875 -1.96875 1.4375q-0.40625 0.375 -0.546875 0.8125q-0.15625 0.421875 -0.15625 1.34375l0 0.546875l5.578125 0l0 2.703125zm-7.703125 -2.703125l0 -2.0q0 -1.9375 -0.15625 -2.421875q-0.171875 -0.484375 -0.578125 -0.75q-0.40625 -0.28125 -1.0 -0.28125q-0.671875 0 -1.078125 0.359375q-0.421875 0.359375 -0.53125 1.015625q-0.046875 0.328125 -0.046875 1.96875l0 2.109375l3.390625 0zm1.109375 -10.222946q-2.046875 0 -3.421875 -0.609375q-1.03125 -0.453125 -1.828125 -1.234375q-0.8125 -0.796875 -1.203125 -1.734375q-0.53125 -1.25 -0.53125 -2.875q0 -2.953125 1.828125 -4.71875q1.828125 -1.78125 5.09375 -1.78125q3.234375 0 5.0625 1.765625q1.828125 1.75 1.828125 4.6875q0 2.984375 -1.8125 4.75q-1.828125 1.75 -5.015625 1.75zm-0.09375 -2.78125q2.265625 0 3.4375 -1.046875q1.171875 -1.046875 1.171875 -2.65625q0 -1.609375 -1.15625 -2.640625q-1.171875 -1.046875 -3.484375 -1.046875q-2.296875 0 -3.421875 1.015625q-1.140625 1.0 -1.140625 2.671875q0 1.671875 1.15625 2.6875q1.140625 1.015625 3.4375 1.015625zm1.78125 -20.823929l0.828125 -2.609375q2.1875 0.59375 3.25 2.0q1.0625 1.390625 1.0625 3.546875q0 2.65625 -1.8125 4.375q-1.828125 1.703125 -4.984375 1.703125q-3.328125 0 -5.171875 -1.71875q-1.84375 -1.71875 -1.84375 -4.515625q0 -2.453125 1.4375 -3.984375q0.859375 -0.921875 2.46875 -1.375l0.640625 2.671875q-1.046875 0.234375 -1.640625 0.984375q-0.609375 0.75 -0.609375 1.828125q0 1.484375 1.078125 2.421875q1.0625 0.921875 3.4375 0.921875q2.53125 0 3.609375 -0.90625q1.078125 -0.921875 1.078125 -2.375q0 -1.078125 -0.671875 -1.84375q-0.6875 -0.78125 -2.15625 -1.125zm4.90625 -4.926071l-13.359375 0l0 -9.90625l2.265625 0l0 7.21875l2.953125 0l0 -6.71875l2.25 0l0 6.71875l3.640625 0l0 -7.46875l2.25 0l0 10.15625zm0 -12.443573l-13.359375 0l0 -5.6875q0 -2.140625 0.359375 -3.109375q0.359375 -0.96875 1.28125 -1.546875q0.921875 -0.578125 2.109375 -0.578125q1.5 0 2.484375 0.890625q0.96875 0.875 1.234375 2.625q0.5 -0.875 1.125 -1.4375q0.609375 -0.578125 2.15625 -1.53125l2.609375 -1.640625l0 3.234375l-2.90625 1.9375q-1.5625 1.046875 -1.96875 1.4375q-0.40625 0.375 -0.546875 0.8125q-0.15625 0.421875 -0.15625 1.34375l0 0.546875l5.578125 0l0 2.703125zm-7.703125 -2.703125l0 -2.0q0 -1.9375 -0.15625 -2.421875q-0.171875 -0.484375 -0.578125 -0.75q-0.40625 -0.28125 -1.0 -0.28125q-0.671875 0 -1.078125 0.359375q-0.421875 0.359375 -0.53125 1.015625q-0.046875 0.328125 -0.046875 1.96875l0 2.109375l3.390625 0zm7.703125 -13.577118l-5.625 0l-7.734375 4.890625l0 -3.171875l5.28125 -3.140625l-5.28125 -3.078125l0 -3.109375l7.75 4.921875l5.609375 0l0 2.6875z"/>
        <path fill="#000000" fill-opacity="0.0" fill-rule="evenodd" d="m656.11383 201.8307l0 116.56694l-26.393738 0l0 -116.56694z"/>
        <path fill="#efefef" fill-rule="nonzero" d="m642.5532 212.19008l0 5.34375q0 1.59375 -0.140625 2.359375q-0.125 0.78125 -0.546875 1.390625q-0.421875 0.625 -1.125 1.03125q-0.6875 0.40625 -1.546875 0.40625q-0.9375 0 -1.734375 -0.5q-0.78125 -0.5 -1.171875 -1.375q-0.359375 1.21875 -1.21875 1.875q-0.84375 0.65625 -2.0 0.65625q-0.921875 0 -1.78125 -0.421875q-0.859375 -0.421875 -1.375 -1.15625q-0.515625 -0.734375 -0.625 -1.796875q-0.078125 -0.6875 -0.09375 -3.265625l0 -4.546875l13.359375 0zm-2.234375 2.703125l-3.078125 0l0 1.765625q0 1.578125 0.046875 1.953125q0.078125 0.703125 0.46875 1.09375q0.40625 0.40625 1.046875 0.40625q0.625 0 1.0 -0.34375q0.390625 -0.34375 0.484375 -1.015625q0.03125 -0.40625 0.03125 -2.3125l0 -1.546875zm-5.296875 0l-3.578125 0l0 2.5q0 1.453125 0.078125 1.84375q0.109375 0.609375 0.53125 0.984375q0.421875 0.375 1.140625 0.375q0.59375 0 1.015625 -0.296875q0.421875 -0.28125 0.609375 -0.84375q0.203125 -0.546875 0.203125 -2.390625l0 -2.171875zm-5.828125 22.816696l0 -2.9375l3.03125 -1.171875l0 -5.328125l-3.03125 -1.109375l0 -2.859375l13.359375 5.203125l0 2.84375l-13.359375 5.359375zm5.28125 -4.96875l4.953125 -1.84375l-4.953125 -1.796875l0 3.640625zm-5.28125 6.426071l13.359375 0l0 2.703125l-5.9375 0l5.9375 5.4375l0 3.625l-5.203125 -5.015625l-8.15625 5.296875l0 -3.484375l6.265625 -3.671875l-2.234375 -2.1875l-4.03125 0l0 -2.703125zm0 13.441696l13.359375 0l0 9.90625l-2.265625 0l0 -7.21875l-2.953125 0l0 6.71875l-2.25 0l0 -6.71875l-3.640625 0l0 7.46875l-2.25 0l0 -10.15625zm0 12.443573l13.359375 0l0 5.6875q0 2.140625 -0.359375 3.109375q-0.359375 0.96875 -1.28125 1.546875q-0.921875 0.578125 -2.109375 0.578125q-1.5 0 -2.484375 -0.890625q-0.96875 -0.875 -1.234375 -2.625q-0.5 0.875 -1.125 1.4375q-0.609375 0.578125 -2.15625 1.53125l-2.609375 1.640625l0 -3.234375l2.90625 -1.9375q1.5625 -1.046875 1.96875 -1.4375q0.40625 -0.375 0.546875 -0.8125q0.15625 -0.421875 0.15625 -1.34375l0 -0.546875l-5.578125 0l0 -2.703125zm7.703125 2.703125l0 2.0q0 1.9375 0.15625 2.421875q0.171875 0.484375 0.578125 0.75q0.40625 0.28125 1.0 0.28125q0.671875 0 1.078125 -0.359375q0.421875 -0.359375 0.53125 -1.015625q0.046875 -0.328125 0.046875 -1.96875l0 -2.109375l-3.390625 0zm-7.703125 13.577118l5.625 0l7.734375 -4.890625l0 3.171875l-5.28125 3.140625l5.28125 3.078125l0 3.109375l-7.75 -4.921875l-5.609375 0l0 -2.6875z"/>
        <path fill="#000000" fill-opacity="0.0" fill-rule="evenodd" d="m665.0551 83.091866l0 134.64566l-23.84253 0l0 -134.64566z"/>
        <path fill="#efefef" fill-rule="nonzero" d="m638.13513 95.341866l13.359375 -3.1875l0 2.765625l-9.171875 2.015625l9.171875 2.4375l0 3.203125l-9.328125 2.34375l9.328125 2.046875l0 2.71875l-13.359375 -3.25l0 -2.859375l9.984375 -2.65625l-9.984375 -2.65625l0 -2.921875zm0 15.639908l13.359375 0l0 2.6875l-13.359375 0l0 -2.6875zm0 5.292679l13.359375 0l0 2.625l-8.921875 5.453125l8.921875 0l0 2.515625l-13.359375 0l0 -2.703125l8.703125 -5.390625l-8.703125 0l0 -2.5zm0 13.441689l13.359375 0l0 9.90625l-2.265625 0l0 -7.21875l-2.953125 0l0 6.71875l-2.25 0l0 -6.71875l-3.640625 0l0 7.46875l-2.25 0l0 -10.15625zm1.625 29.439377l-1.96875 -1.546875q0.546875 -1.140625 1.53125 -2.1875q-0.734375 -0.8125 -1.078125 -1.71875q-0.34375 -0.90625 -0.34375 -2.171875q0 -2.5 1.40625 -3.75q1.078125 -0.984375 2.484375 -0.984375q1.296875 0 2.3125 0.765625q1.03125 0.765625 1.78125 2.296875q0.8125 -0.6875 1.546875 -1.03125q0.734375 -0.34375 1.390625 -0.34375q1.203125 0 2.046875 0.96875q0.84375 0.96875 0.84375 2.765625q0 1.734375 -0.890625 2.703125q-0.875 0.96875 -2.140625 0.96875q-0.8125 0 -1.546875 -0.484375q-0.734375 -0.46875 -1.65625 -1.9375l-2.4375 1.859375q0.578125 0.328125 1.515625 0.5625l-0.53125 2.3125q-1.21875 -0.34375 -1.796875 -0.609375q-0.5625 -0.25 -0.953125 -0.546875q-0.40625 0.4375 -0.890625 1.109375q-0.46875 0.6875 -0.625 1.0zm7.265625 -6.96875l0.53125 0.6875q0.59375 0.765625 1.171875 0.765625q0.5 0 0.84375 -0.375q0.34375 -0.359375 0.34375 -0.984375q0 -0.609375 -0.3125 -0.96875q-0.296875 -0.34375 -0.703125 -0.34375q-0.46875 0 -1.140625 0.59375l-0.734375 0.625zm-2.78125 -1.0q-0.4375 -0.890625 -1.078125 -1.328125q-0.625 -0.4375 -1.28125 -0.4375q-0.828125 0 -1.359375 0.546875q-0.515625 0.546875 -0.515625 1.453125q0 0.609375 0.234375 1.15625q0.234375 0.5625 0.78125 1.21875l3.21875 -2.609375z"/>
        <path fill="#efefef" fill-rule="nonzero" d="m620.4789 92.76374l0.25 2.625q-1.3125 0.234375 -1.9375 0.953125q-0.609375 0.734375 -0.609375 1.96875q0 1.296875 0.546875 1.953125q0.546875 0.671875 1.28125 0.671875q0.484375 0 0.8125 -0.28125q0.328125 -0.28125 0.578125 -0.96875q0.15625 -0.484375 0.578125 -2.171875q0.546875 -2.15625 1.328125 -3.03125q1.09375 -1.234375 2.6875 -1.234375q1.015625 0 1.90625 0.578125q0.890625 0.578125 1.34375 1.65625q0.46875 1.09375 0.46875 2.640625q0 2.515625 -1.109375 3.78125q-1.09375 1.28125 -2.9375 1.34375l-0.109375 -2.703125q1.03125 -0.171875 1.46875 -0.75q0.453125 -0.5625 0.453125 -1.703125q0 -1.171875 -0.46875 -1.84375q-0.3125 -0.421875 -0.84375 -0.421875q-0.46875 0 -0.796875 0.40625q-0.4375 0.5 -0.90625 2.46875q-0.453125 1.96875 -0.953125 2.90625q-0.5 0.953125 -1.359375 1.484375q-0.859375 0.53125 -2.125 0.53125q-1.15625 0 -2.15625 -0.640625q-1.0 -0.640625 -1.484375 -1.8125q-0.484375 -1.15625 -0.484375 -2.890625q0 -2.53125 1.171875 -3.890625q1.171875 -1.359375 3.40625 -1.625zm-4.34375 13.131073l13.359375 0l0 4.328125q0 2.453125 -0.203125 3.203125q-0.296875 1.140625 -1.3125 1.921875q-1.0 0.78125 -2.59375 0.78125q-1.234375 0 -2.078125 -0.453125q-0.828125 -0.453125 -1.3125 -1.140625q-0.46875 -0.6875 -0.625 -1.390625q-0.203125 -0.96875 -0.203125 -2.796875l0 -1.765625l-5.03125 0l0 -2.6875zm11.09375 2.6875l-3.78125 0l0 1.484375q0 1.59375 0.203125 2.125q0.203125 0.546875 0.65625 0.84375q0.453125 0.3125 1.03125 0.3125q0.734375 0 1.203125 -0.4375q0.484375 -0.421875 0.59375 -1.078125q0.09375 -0.484375 0.09375 -1.9375l0 -1.3125zm-11.09375 9.677948l13.359375 0l0 2.6875l-13.359375 0l0 -2.6875zm0 5.261429l13.359375 0l0 5.6874924q0 2.140625 -0.359375 3.109375q-0.359375 0.96875 -1.28125 1.546875q-0.921875 0.578125 -2.109375 0.578125q-1.5 0 -2.484375 -0.890625q-0.96875 -0.875 -1.234375 -2.625q-0.5 0.875 -1.125 1.4375q-0.609375 0.578125 -2.15625 1.53125l-2.609375 1.640625l0 -3.234375l2.90625 -1.9375q1.5625 -1.046875 1.96875 -1.4375q0.40625 -0.375 0.546875 -0.8125q0.15625 -0.42186737 0.15625 -1.3437424l0 -0.546875l-5.578125 0l0 -2.703125zm7.703125 2.703125l0 1.9999924q0 1.9375 0.15625 2.421875q0.171875 0.484375 0.578125 0.75q0.40625 0.28125 1.0 0.28125q0.671875 0 1.078125 -0.359375q0.421875 -0.359375 0.53125 -1.015625q0.046875 -0.328125 0.046875 -1.96875l0 -2.1093674l-3.390625 0zm-7.703125 10.691689l13.359375 0l0 2.6875l-13.359375 0l0 -2.6875zm0 8.261429l11.09375 0l0 -3.953125l2.265625 0l0 10.609375l-2.265625 0l0 -3.953125l-11.09375 0l0 -2.703125zm4.34375 7.708481l0.25 2.625q-1.3125 0.234375 -1.9375 0.953125q-0.609375 0.734375 -0.609375 1.96875q0 1.296875 0.546875 1.953125q0.546875 0.671875 1.28125 0.671875q0.484375 0 0.8125 -0.28125q0.328125 -0.28125 0.578125 -0.96875q0.15625 -0.484375 0.578125 -2.171875q0.546875 -2.15625 1.328125 -3.03125q1.09375 -1.234375 2.6875 -1.234375q1.015625 0 1.90625 0.578125q0.890625 0.578125 1.34375 1.65625q0.46875 1.09375 0.46875 2.640625q0 2.515625 -1.109375 3.78125q-1.09375 1.28125 -2.9375 1.34375l-0.109375 -2.703125q1.03125 -0.171875 1.46875 -0.75q0.453125 -0.5625 0.453125 -1.703125q0 -1.171875 -0.46875 -1.84375q-0.3125 -0.421875 -0.84375 -0.421875q-0.46875 0 -0.796875 0.40625q-0.4375 0.5 -0.90625 2.46875q-0.453125 1.96875 -0.953125 2.90625q-0.5 0.953125 -1.359375 1.484375q-0.859375 0.53125 -2.125 0.53125q-1.15625 0 -2.15625 -0.640625q-1.0 -0.640625 -1.484375 -1.8125q-0.484375 -1.15625 -0.484375 -2.890625q0 -2.53125 1.171875 -3.890625q1.171875 -1.359375 3.40625 -1.625z"/>
        <path fill="#000000" fill-opacity="0.0" fill-rule="evenodd" d="m646.35693 338.59055l0 202.48819l-26.393677 0l0 -202.48819z"/>
        <path fill="#efefef" fill-rule="nonzero" d="m650.5995 356.8704l0 4.9375q0 1.65625 -0.265625 2.53125q-0.34375 1.1875 -1.234375 2.015625q-0.875 0.84375 -2.15625 1.28125q-1.28125 0.4375 -3.15625 0.4375q-1.640625 0 -2.84375 -0.40625q-1.453125 -0.5 -2.359375 -1.4375q-0.671875 -0.703125 -1.0625 -1.890625q-0.28125 -0.890625 -0.28125 -2.390625l0 -5.078125l13.359375 0zm-2.265625 2.703125l-8.84375 0l0 2.015625q0 1.125 0.125 1.625q0.171875 0.65625 0.5625 1.078125q0.390625 0.4375 1.28125 0.703125q0.90625 0.28125 2.453125 0.28125q1.546875 0 2.375 -0.28125q0.828125 -0.265625 1.28125 -0.765625q0.46875 -0.484375 0.640625 -1.234375q0.125 -0.5625 0.125 -2.21875l0 -1.203125zm-11.09375 10.785461l13.359375 0l0 9.90625l-2.265625 0l0 -7.21875l-2.953125 0l0 6.71875l-2.25 0l0 -6.71875l-3.640625 0l0 7.46875l-2.25 0l0 -10.15625zm0 12.521698l13.25 0l0 2.6875l-11.0 0l0 6.703125l-2.25 0l0 -9.390625zm0 11.239716l13.359375 0l0 2.6875l-13.359375 0l0 -2.6875zm1.625 22.257233l-1.96875 -1.546875q0.546875 -1.140625 1.53125 -2.1875q-0.734375 -0.8125 -1.078125 -1.71875q-0.34375 -0.90625 -0.34375 -2.171875q0 -2.5 1.40625 -3.75q1.078125 -0.984375 2.484375 -0.984375q1.296875 0 2.3125 0.765625q1.03125 0.765625 1.78125 2.296875q0.8125 -0.6875 1.546875 -1.03125q0.734375 -0.34375 1.390625 -0.34375q1.203125 0 2.046875 0.96875q0.84375 0.96875 0.84375 2.765625q0 1.734375 -0.890625 2.703125q-0.875 0.96875 -2.140625 0.96875q-0.8125 0 -1.546875 -0.484375q-0.734375 -0.46875 -1.65625 -1.9375l-2.4375 1.859375q0.578125 0.328125 1.515625 0.5625l-0.53125 2.3125q-1.21875 -0.34375 -1.796875 -0.609375q-0.5625 -0.25 -0.953125 -0.546875q-0.40625 0.4375 -0.890625 1.109375q-0.46875 0.6875 -0.625 1.0zm7.265625 -6.96875l0.53125 0.6875q0.59375 0.765625 1.171875 0.765625q0.5 0 0.84375 -0.375q0.34375 -0.359375 0.34375 -0.984375q0 -0.609375 -0.3125 -0.96875q-0.296875 -0.34375 -0.703125 -0.34375q-0.46875 0 -1.140625 0.59375l-0.734375 0.625zm-2.78125 -1.0q-0.4375 -0.890625 -1.078125 -1.328125q-0.625 -0.4375 -1.28125 -0.4375q-0.828125 0 -1.359375 0.546875q-0.515625 0.546875 -0.515625 1.453125q0 0.609375 0.234375 1.15625q0.234375 0.5625 0.78125 1.21875l3.21875 -2.609375zm-6.109375 14.8125l13.359375 0l0 4.328125q0 2.453125 -0.203125 3.203125q-0.296875 1.140625 -1.3125 1.921875q-1.0 0.78125 -2.59375 0.78125q-1.234375 0 -2.078125 -0.453125q-0.828125 -0.453125 -1.3125 -1.140625q-0.46875 -0.6875 -0.625 -1.390625q-0.203125 -0.96875 -0.203125 -2.796875l0 -1.765625l-5.03125 0l0 -2.6875zm11.09375 2.6875l-3.78125 0l0 1.484375q0 1.59375 0.203125 2.125q0.203125 0.546875 0.65625 0.84375q0.453125 0.3125 1.03125 0.3125q0.734375 0 1.203125 -0.4375q0.484375 -0.421875 0.59375 -1.078125q0.09375 -0.484375 0.09375 -1.9375l0 -1.3125zm-11.09375 9.756073l13.359375 0l0 5.6875q0 2.140625 -0.359375 3.109375q-0.359375 0.96875 -1.28125 1.546875q-0.921875 0.578125 -2.109375 0.578125q-1.5 0 -2.484375 -0.890625q-0.96875 -0.875 -1.234375 -2.625q-0.5 0.875 -1.125 1.4375q-0.609375 0.578125 -2.15625 1.53125l-2.609375 1.640625l0 -3.234375l2.90625 -1.9375q1.5625 -1.046875 1.96875 -1.4375q0.40625 -0.375 0.546875 -0.8125q0.15625 -0.421875 0.15625 -1.34375l0 -0.546875l-5.578125 0l0 -2.703125zm7.703125 2.703125l0 2.0q0 1.9375 0.15625 2.421875q0.171875 0.484375 0.578125 0.75q0.40625 0.28125 1.0 0.28125q0.671875 0 1.078125 -0.359375q0.421875 -0.359375 0.53125 -1.015625q0.046875 -0.328125 0.046875 -1.96875l0 -2.109375l-3.390625 0zm-7.703125 10.769836l13.359375 0l0 9.90625l-2.265625 0l0 -7.21875l-2.953125 0l0 6.71875l-2.25 0l0 -6.71875l-3.640625 0l0 7.46875l-2.25 0l0 -10.15625zm0 12.443573l13.359375 0l0 4.328125q0 2.4530945 -0.203125 3.2030945q-0.296875 1.140625 -1.3125 1.921875q-1.0 0.78125 -2.59375 0.78125q-1.234375 0 -2.078125 -0.453125q-0.828125 -0.453125 -1.3125 -1.140625q-0.46875 -0.6875 -0.625 -1.390625q-0.203125 -0.96875 -0.203125 -2.7968445l0 -1.765625l-5.03125 0l0 -2.6875zm11.09375 2.6875l-3.78125 0l0 1.484375q0 1.5937195 0.203125 2.1249695q0.203125 0.546875 0.65625 0.84375q0.453125 0.3125 1.03125 0.3125q0.734375 0 1.203125 -0.4375q0.484375 -0.421875 0.59375 -1.078125q0.09375 -0.484375 0.09375 -1.9374695l0 -1.3125zm-11.09375 20.417511l0 -2.9375l3.03125 -1.171875l0 -5.328125l-3.03125 -1.109375l0 -2.859375l13.359375 5.203125l0 2.84375l-13.359375 5.359375zm5.28125 -4.96875l4.953125 -1.84375l-4.953125 -1.796875l0 3.640625zm-5.28125 6.394806l13.359375 0l0 5.6875q0 2.140625 -0.359375 3.109375q-0.359375 0.96875 -1.28125 1.546875q-0.921875 0.578125 -2.109375 0.578125q-1.5 0 -2.484375 -0.890625q-0.96875 -0.875 -1.234375 -2.625q-0.5 0.875 -1.125 1.4375q-0.609375 0.578125 -2.15625 1.53125l-2.609375 1.640625l0 -3.234375l2.90625 -1.9375q1.5625 -1.046875 1.96875 -1.4375q0.40625 -0.375 0.546875 -0.8125q0.15625 -0.421875 0.15625 -1.34375l0 -0.546875l-5.578125 0l0 -2.703125zm7.703125 2.703125l0 2.0q0 1.9375 0.15625 2.421875q0.171875 0.484375 0.578125 0.75q0.40625 0.28125 1.0 0.28125q0.671875 0 1.078125 -0.359375q0.421875 -0.359375 0.53125 -1.015625q0.046875 -0.328125 0.046875 -1.96875l0 -2.109375l-3.390625 0zm-7.703125 10.769836l13.359375 0l0 9.90625l-2.265625 0l0 -7.21875l-2.953125 0l0 6.71875l-2.25 0l0 -6.71875l-3.640625 0l0 7.46875l-2.25 0l0 -10.15625zm13.359375 12.4279785l0 4.9375q0 1.65625 -0.265625 2.53125q-0.34375 1.1875 -1.234375 2.015625q-0.875 0.84375 -2.15625 1.28125q-1.28125 0.4375 -3.15625 0.4375q-1.640625 0 -2.84375 -0.40625q-1.453125 -0.5 -2.359375 -1.4375q-0.671875 -0.703125 -1.0625 -1.890625q-0.28125 -0.890625 -0.28125 -2.390625l0 -5.078125l13.359375 0zm-2.265625 2.703125l-8.84375 0l0 2.015625q0 1.125 0.125 1.625q0.171875 0.65625 0.5625 1.078125q0.390625 0.4375 1.28125 0.703125q0.90625 0.28125 2.453125 0.28125q1.546875 0 2.375 -0.28125q0.828125 -0.265625 1.28125 -0.765625q0.46875 -0.484375 0.640625 -1.234375q0.125 -0.5625 0.125 -2.21875l0 -1.203125z"/>
        <path fill="#efefef" fill-rule="nonzero" d="m615.2401 408.04196l13.359375 0l0 9.15625l-2.265625 0l0 -6.453125l-3.15625 0l0 5.5625l-2.265625 0l0 -5.5625l-5.671875 0l0 -2.703125zm6.59375 10.833496q2.046875 0 3.421875 0.609375q1.03125 0.453125 1.828125 1.234375q0.8125 0.796875 1.203125 1.734375q0.53125 1.25 0.53125 2.875q0 2.953125 -1.828125 4.71875q-1.828125 1.78125 -5.09375 1.78125q-3.234375 0 -5.0625 -1.765625q-1.828125 -1.75 -1.828125 -4.6875q0 -2.984375 1.8125 -4.75q1.828125 -1.75 5.015625 -1.75zm0.09375 2.78125q-2.265625 0 -3.4375 1.046875q-1.171875 1.046875 -1.171875 2.65625q0 1.609375 1.15625 2.640625q1.171875 1.046875 3.484375 1.046875q2.296875 0 3.421875 -1.015625q1.140625 -1.0 1.140625 -2.671875q0 -1.671875 -1.15625 -2.6875q-1.140625 -1.015625 -3.4375 -1.015625zm-0.09375 11.730164q2.046875 0 3.421875 0.609375q1.03125 0.453125 1.828125 1.234375q0.8125 0.796875 1.203125 1.734375q0.53125 1.25 0.53125 2.875q0 2.953125 -1.828125 4.71875q-1.828125 1.78125 -5.09375 1.78125q-3.234375 0 -5.0625 -1.765625q-1.828125 -1.75 -1.828125 -4.6875q0 -2.984375 1.8125 -4.75q1.828125 -1.75 5.015625 -1.75zm0.09375 2.78125q-2.265625 0 -3.4375 1.046875q-1.171875 1.046875 -1.171875 2.65625q0 1.609375 1.15625 2.640625q1.171875 1.046875 3.484375 1.046875q2.296875 0 3.421875 -1.015625q1.140625 -1.0 1.140625 -2.671875q0 -1.671875 -1.15625 -2.6875q-1.140625 -1.015625 -3.4375 -1.015625zm6.671875 12.261444l0 4.9375q0 1.65625 -0.265625 2.53125q-0.34375 1.1875 -1.234375 2.015625q-0.875 0.84375 -2.15625 1.28125q-1.28125 0.4375 -3.15625 0.4375q-1.640625 0 -2.84375 -0.40625q-1.453125 -0.5 -2.359375 -1.4375q-0.671875 -0.703125 -1.0625 -1.890625q-0.28125 -0.890625 -0.28125 -2.390625l0 -5.078125l13.359375 0zm-2.265625 2.703125l-8.84375 0l0 2.015625q0 1.125 0.125 1.625q0.171875 0.65625 0.5625 1.078125q0.390625 0.4375 1.28125 0.703125q0.90625 0.28125 2.453125 0.28125q1.546875 0 2.375 -0.28125q0.828125 -0.265625 1.28125 -0.765625q0.46875 -0.484375 0.640625 -1.234375q0.125 -0.5625 0.125 -2.21875l0 -1.203125zm-6.75 10.097931l0.25 2.625q-1.3125 0.234375 -1.9375 0.953125q-0.609375 0.734375 -0.609375 1.96875q0 1.296875 0.546875 1.953125q0.546875 0.671875 1.28125 0.671875q0.484375 0 0.8125 -0.28125q0.328125 -0.28125 0.578125 -0.96875q0.15625 -0.484375 0.578125 -2.171875q0.546875 -2.15625 1.328125 -3.03125q1.09375 -1.234375 2.6875 -1.234375q1.015625 0 1.90625 0.578125q0.890625 0.578125 1.34375 1.65625q0.46875 1.09375 0.46875 2.640625q0 2.515625 -1.109375 3.78125q-1.09375 1.28125 -2.9375 1.34375l-0.109375 -2.703125q1.03125 -0.171875 1.46875 -0.75q0.453125 -0.5625 0.453125 -1.703125q0 -1.171875 -0.46875 -1.84375q-0.3125 -0.421875 -0.84375 -0.421875q-0.46875 0 -0.796875 0.40625q-0.4375 0.5 -0.90625 2.46875q-0.453125 1.96875 -0.953125 2.90625q-0.5 0.953125 -1.359375 1.484375q-0.859375 0.53125 -2.125 0.53125q-1.15625 0 -2.15625 -0.640625q-1.0 -0.640625 -1.484375 -1.8125q-0.484375 -1.15625 -0.484375 -2.890625q0 -2.53125 1.171875 -3.890625q1.171875 -1.359375 3.40625 -1.625z"/>
        <path fill="#999999" fill-rule="evenodd" d="m291.3622 616.6142l0 -58.86615l12.75589 0l0 58.86615z"/>
        <path fill="#999999" fill-rule="evenodd" d="m325.17584 616.6142l0 -58.86615l12.75592 0l0 58.86615z"/>
        <path fill="#999999" fill-rule="evenodd" d="m357.0656 616.6142l0 -58.86615l12.75592 0l0 58.86615z"/>
        <path fill="#999999" fill-rule="evenodd" d="m390.87927 616.6142l0 -58.86615l12.75589 0l0 58.86615z"/>
        <path fill="#999999" fill-rule="evenodd" d="m423.15747 616.6142l0 -58.86615l12.75592 0l0 58.86615z"/>
        <path fill="#999999" fill-rule="evenodd" d="m456.97113 616.6142l0 -58.86615l12.75589 0l0 58.86615z"/>
        <path fill="#999999" fill-rule="evenodd" d="m488.8609 616.6142l0 -58.86615l12.75589 0l0 58.86615z"/>
    </g>
</svg>
